# xmcd
#
# Track frame offsets: 
#        150
#        27005
#        45667
#        64084
#        85129
#
# Disc length: 1413 seconds
#
# Revision: 0
# Processed by: cddbd v1.5.2PL0 Copyright (c) Steve Scherf et al.
# Submitted via: ExactAudioCopy v1.0b1
#
DISCID=34058305
DTITLE=縱貫線 - 南＜下＞列車
DYEAR=2010
DGENRE=
TTITLE0=歸來
TTITLE1=握手
TTITLE2=有光
TTITLE3=給自己的歌
TTITLE4=感應
EXTD=
EXTT0=
EXTT1=
EXTT2=
EXTT3=
EXTT4=
PLAYORDER=
